<?xml version="1.0" standalone="no"?>
<!DOCTYPE svg PUBLIC "-//W3C//DTD SVG 20010904//EN"
 "http://www.w3.org/TR/2001/REC-SVG-20010904/DTD/svg10.dtd">
<svg version="1.0" xmlns="http://www.w3.org/2000/svg"
 width="284.000000pt" height="284.000000pt" viewBox="0 0 284.000000 284.000000"
 preserveAspectRatio="xMidYMid meet">
<metadata>
Created by potrace 1.14, written by Peter Selinger 2001-2017
</metadata>
<g transform="translate(0.000000,284.000000) scale(0.100000,-0.100000)"
fill="#000000" stroke="none">
<path d="M1290 2058 c-19 -6 -42 -16 -51 -24 -8 -8 -21 -14 -27 -14 -25 0
-120 -49 -156 -80 -90 -79 -92 -178 -6 -279 25 -29 71 -32 99 -7 17 16 19 28
15 85 -10 143 -9 154 38 225 26 40 54 70 72 78 70 29 145 3 208 -72 32 -38 41
-52 92 -157 13 -29 39 -65 56 -80 31 -28 49 -87 33 -108 -11 -14 -109 -85
-118 -85 -23 0 -117 -34 -130 -46 -8 -9 -15 -26 -15 -40 0 -13 -2 -24 -5 -24
-3 0 -31 18 -63 39 -75 51 -126 71 -184 74 -41 1 -81 -15 -67 -26 25 -22 121
-81 166 -103 79 -37 110 -45 139 -34 20 8 24 16 24 48 0 53 15 68 95 92 39 11
83 31 98 43 14 12 38 30 52 40 40 28 27 110 -22 142 -21 14 -60 84 -105 188
-11 26 15 9 86 -55 71 -63 84 -73 113 -80 58 -15 73 60 33 165 -25 67 -60 91
-131 89 -42 -1 -122 -25 -142 -42 -5 -5 -30 5 -55 20 -54 33 -93 41 -142 28z"/>
<path d="M1887 1730 c-80 -15 -111 -55 -122 -159 -6 -68 -19 -90 -78 -137
-170 -136 -376 -164 -567 -76 -99 45 -221 144 -312 251 -21 25 -38 39 -38 33
0 -7 42 -54 92 -106 122 -123 221 -186 346 -220 191 -52 370 -1 537 155 28 25
61 50 75 53 101 28 131 61 133 148 2 67 0 69 -66 58z m63 -34 c0 -83 -37 -135
-110 -156 -26 -8 -29 -7 -21 8 5 9 18 26 29 38 11 11 25 31 32 45 16 31 14 28
-54 -56 l-57 -69 6 49 c8 72 23 121 41 136 15 12 94 36 120 36 9 0 14 -12 14
-31z"/>
<path d="M430 1163 c0 -3 7 -15 16 -25 14 -14 17 -39 17 -120 -1 -92 -3 -104
-22 -120 -18 -14 -27 -15 -47 -6 -28 13 -26 6 -29 123 -2 86 5 122 29 137 18
13 -21 9 -49 -4 -78 -36 -86 -204 -12 -253 34 -22 118 -22 156 1 62 37 77 161
27 226 -14 19 -86 53 -86 41z"/>
<path d="M1135 1162 c-64 -13 -105 -82 -99 -165 7 -81 58 -123 143 -119 84 3
123 54 120 152 -2 48 -7 66 -28 90 -27 32 -86 56 -96 39 -4 -5 1 -9 10 -9 25
0 33 -37 31 -143 -1 -82 -4 -101 -19 -112 -22 -16 -54 -9 -67 14 -8 16 -13 89
-11 174 1 23 9 45 22 58 23 23 22 27 -6 21z"/>
<path d="M1712 1160 c-68 -15 -110 -88 -98 -172 9 -62 33 -88 109 -112 20 -6
23 10 3 21 -26 15 -34 71 -27 199 1 11 10 30 20 41 27 29 66 19 95 -24 26 -37
35 -34 32 11 -2 23 -7 29 -26 32 -14 1 -36 4 -50 7 -14 2 -40 1 -58 -3z"/>
<path d="M1991 1148 c-64 -176 -96 -254 -105 -260 -6 -4 5 -7 24 -7 19 1 27 3
18 6 -22 6 -22 8 1 57 10 23 24 63 31 89 7 26 16 44 19 40 14 -16 32 -83 26
-93 -3 -5 -2 -10 4 -10 5 0 15 -16 21 -36 10 -30 10 -38 -1 -45 -9 -5 13 -9
56 -9 43 0 65 4 56 9 -7 5 -34 66 -61 136 -49 132 -73 165 -89 123z"/>
<path d="M2679 1160 c-76 -22 -114 -90 -97 -179 14 -74 71 -114 149 -103 19 2
44 5 57 5 20 1 22 6 21 47 l0 45 -16 -31 c-17 -35 -64 -67 -86 -58 -32 12 -49
72 -45 156 3 70 6 82 27 99 28 23 25 29 -10 19z"/>
<path d="M2730 1160 c0 -5 8 -11 18 -14 9 -3 27 -23 39 -44 l21 -37 0 46 c0
38 -3 46 -16 44 -9 -1 -27 2 -39 6 -13 5 -23 5 -23 -1z"/>
<path d="M20 1152 c13 -6 15 -29 15 -127 -1 -66 -5 -126 -9 -133 -6 -10 10
-13 78 -11 94 2 125 12 142 48 17 33 -1 79 -33 87 l-25 7 26 24 c25 23 33 57
18 79 -16 25 -55 34 -139 33 -48 0 -81 -3 -73 -7z m134 -18 c10 -26 7 -79 -6
-92 -26 -26 -36 -13 -36 48 0 51 3 60 18 60 10 0 21 -7 24 -16z m4 -126 c16
-16 16 -90 0 -106 -7 -7 -20 -12 -30 -12 -15 0 -17 9 -17 65 1 55 4 65 18 65
9 0 22 -5 29 -12z"/>
<path d="M551 1153 c9 -2 19 -14 22 -26 7 -30 73 -212 87 -237 22 -41 36 -24
66 83 10 37 21 67 25 67 3 0 16 -34 29 -75 41 -129 56 -123 98 35 17 63 32
122 34 130 1 8 10 18 18 22 8 4 -3 6 -25 6 -22 0 -32 -2 -22 -5 21 -6 21 -11
-3 -98 -11 -38 -20 -74 -20 -80 -1 -5 -14 30 -30 80 -22 67 -26 91 -17 97 7 4
-17 8 -53 8 -36 0 -60 -4 -53 -8 7 -4 18 -22 26 -40 11 -28 11 -40 -2 -82 -8
-28 -18 -50 -21 -50 -3 0 -18 37 -33 82 -20 62 -24 84 -14 90 6 4 -19 7 -58 7
-38 -1 -63 -3 -54 -6z"/>
<path d="M1338 1154 c9 -4 12 -41 12 -134 0 -93 -3 -130 -12 -133 -7 -3 19 -5
57 -5 39 0 62 2 53 5 -15 4 -18 16 -18 69 0 57 2 64 20 64 11 0 20 -3 21 -7 0
-5 2 -30 4 -57 4 -58 22 -79 64 -78 39 1 47 6 54 34 5 21 5 21 -7 6 -20 -28
-26 -22 -26 27 0 32 -6 50 -19 61 -18 15 -17 17 5 40 27 26 31 61 10 89 -12
17 -29 20 -122 22 -60 2 -103 0 -96 -3z m139 -20 c18 -48 0 -104 -34 -104 -9
0 -13 16 -13 60 0 54 2 60 20 60 11 0 23 -7 27 -16z"/>
<path d="M2171 1153 c11 -3 14 -15 12 -53 -2 -26 0 -51 5 -53 4 -3 7 14 6 39
-1 24 0 44 2 44 1 0 14 -21 27 -47 91 -178 105 -198 136 -201 l31 -3 0 135 c0
98 3 136 13 139 6 3 -4 6 -23 6 -26 1 -31 -2 -20 -9 11 -7 15 -30 16 -94 0
-47 -2 -83 -5 -81 -3 1 -26 44 -51 94 l-45 91 -60 -1 c-33 -1 -53 -3 -44 -6z"/>
<path d="M2438 1153 c9 -3 12 -40 12 -133 0 -93 -3 -130 -12 -133 -7 -3 16 -5
52 -5 36 0 59 2 53 5 -10 3 -13 40 -13 133 0 93 3 130 13 133 6 3 -17 5 -53 5
-36 0 -59 -2 -52 -5z"/>
<path d="M2180 1010 c0 -11 4 -20 8 -20 4 0 8 9 8 20 0 11 -4 20 -8 20 -4 0
-8 -9 -8 -20z"/>
<path d="M1767 998 c-9 -6 -9 -8 1 -8 8 0 12 -17 12 -49 0 -39 -4 -51 -17 -54
-10 -3 7 -4 38 -4 l56 2 -1 45 c0 25 4 51 8 58 9 14 12 13 -42 15 -24 2 -49
-1 -55 -5z"/>
<path d="M1970 980 c-13 -8 -12 -10 3 -10 9 0 17 5 17 10 0 12 -1 12 -20 0z"/>
<path d="M2182 941 c0 -25 -7 -48 -14 -52 -8 -6 0 -8 22 -8 19 1 27 3 17 6
-13 3 -17 12 -14 31 2 15 1 36 -3 47 -5 14 -8 7 -8 -24z"/>
</g>
</svg>
